<?xml version="1.0" encoding="UTF-8"?>
<!-- Created with Inkscape (http://www.inkscape.org/) -->
<svg width="297mm" height="210mm" version="1.1" viewBox="0 0 297 210" xmlns="http://www.w3.org/2000/svg">
 <defs></defs>
 <g>
  <path d="m12.801 31.486v128.22h0.85742v-128.22z" color="#000000" style="-inkscape-stroke:none"/>
  <g fill-rule="evenodd">
   <path d="m13.229 161.68-1.7123-2.9623h3.4246z" color="#000000" stroke-width=".34246pt" style="-inkscape-stroke:none"/>
   <path d="m11.121 158.49 2.1074 3.6465 0.19922-0.3418 1.9102-3.3047zm0.79297 0.45703h2.6309l-1.3145 2.2754z" color="#000000" style="-inkscape-stroke:none"/>
   <path d="m13.229 29.509 1.7123 2.9623h-3.4246z" color="#000000" stroke-width=".34246pt" style="-inkscape-stroke:none"/>
   <path d="m13.229 29.053-0.19727 0.3418-1.9102 3.3047h4.2168zm2e-3 0.91406 1.3164 2.2773h-2.6348z" color="#000000" style="-inkscape-stroke:none"/>
  </g>
 </g>
 <path d="m13.229 95.168v0.85547h277.81v-0.85547z" color="#000000" style="-inkscape-stroke:none"/>
 <g fill-rule="evenodd">
  <path d="m293.01 95.596-2.9576 1.7096v-3.4192z" color="#000000" stroke-width=".34192pt" style="-inkscape-stroke:none"/>
  <path d="m289.83 93.492v4.209l3.6426-2.1055-0.34179-0.19727zm0.45704 0.78906 2.2734 1.3145-2.2734 1.3145z" color="#000000" style="-inkscape-stroke:none"/>
 </g>
 <path d="m55.971 52.428c-7.3377-3.13e-4 -14.537 5.451-21.691 13.5-7.1548 8.049-14.283 18.747-21.406 29.432l0.71289 0.47461c7.1233-10.685 14.242-21.359 21.334-29.338 7.0921-7.9784 14.141-13.211 21.051-13.211 6.9096 2.96e-4 13.959 5.2344 21.051 13.213s14.211 18.651 21.334 29.336c7.1235 10.685 14.252 21.383 21.406 29.432 7.1547 8.049 14.352 13.5 21.689 13.5 7.3373-3.1e-4 14.535-5.4528 21.689-13.502 7.1547-8.0491 14.283-18.744 21.406-29.43 7.1235-10.685 14.242-21.36 21.334-29.338s14.141-13.211 21.051-13.211c6.9096 2.96e-4 13.959 5.2345 21.051 13.213s14.209 18.651 21.332 29.336l0.71289-0.47461c-7.1231-10.685-14.252-21.383-21.406-29.432-7.1547-8.049-14.352-13.5-21.689-13.5-7.3377-3.13e-4 -14.537 5.451-21.691 13.5-7.1548 8.049-14.283 18.746-21.406 29.432-7.1235 10.685-14.242 21.357-21.334 29.336-7.0919 7.9785-14.14 13.213-21.049 13.213-6.9092 2.9e-4 -13.959-5.2326-21.051-13.211-7.0919-7.9784-14.211-18.653-21.334-29.338-7.1235-10.685-14.251-21.381-21.406-29.43-7.1548-8.0491-14.352-13.502-21.689-13.502z" color="#000000" style="-inkscape-stroke:none"/>
 <g>
  <path d="m55.969 47.299v0.85547h170.96v-0.85547z" color="#000000" style="-inkscape-stroke:none"/>
  <g fill-rule="evenodd">
   <path d="m228.9 47.727-2.9576 1.7096v-3.4192z" color="#000000" stroke-width=".34192pt" style="-inkscape-stroke:none"/>
   <path d="m225.72 45.623v4.209l3.6406-2.1055-0.34179-0.19726zm0.45508 0.78906 2.2734 1.3145-2.2734 1.3145z" color="#000000" style="-inkscape-stroke:none"/>
   <path d="m53.997 47.727 2.9576-1.7096v3.4192z" color="#000000" stroke-width=".34192pt" style="-inkscape-stroke:none"/>
   <path d="m57.182 45.623-3.6406 2.1035 0.3418 0.19727 3.2988 1.9082zm-0.45508 0.78906v2.6289l-2.2734-1.3145z" color="#000000" style="-inkscape-stroke:none"/>
  </g>
 </g>
 <g transform="matrix(1.0145 0 0 1.0145 14.886 -41.094)">
  <g>
   <g transform="translate(91.925 81.963)">
    <path d="m3.5625-2.9062c0.40625 1.0469 0.89062 2.5625 1.0469 2.7969 0.15625 0.21875 0.25 0.21875 0.53125 0.21875h0.21875c0.09375-0.015625 0.10938-0.0625 0.10938-0.09375s-0.03125-0.0625-0.0625-0.09375c-0.09375-0.10938-0.15625-0.26562-0.21875-0.45312l-2.0312-5.6719c-0.21875-0.57812-0.75-0.71875-1.2188-0.71875-0.046875 0-0.1875 0-0.1875 0.10938 0 0.078125 0.078125 0.10938 0.09375 0.10938 0.32812 0.046875 0.40625 0.10938 0.65625 0.79688l0.95312 2.7031-2.75 2.7344c-0.10938 0.125-0.17188 0.17188-0.17188 0.3125 0 0.17188 0.14062 0.28125 0.29688 0.28125s0.25-0.10938 0.32812-0.20312z" color="#000000" style="-inkscape-stroke:none"/>
   </g>
   <g transform="translate(101.06 81.963)">
    <path d="m3.2969 2.3906c0-0.03125 0-0.046875-0.17188-0.21875-1.2344-1.25-1.5625-3.1406-1.5625-4.6719 0-1.7344 0.375-3.4688 1.6094-4.7031 0.125-0.125 0.125-0.14062 0.125-0.17188 0-0.078125-0.03125-0.10938-0.09375-0.10938-0.10938 0-1 0.6875-1.5938 1.9531-0.5 1.0938-0.625 2.2031-0.625 3.0312 0 0.78125 0.10938 1.9844 0.65625 3.125 0.60938 1.2188 1.4531 1.875 1.5625 1.875 0.0625 0 0.09375-0.03125 0.09375-0.10938z" color="#000000" style="-inkscape-stroke:none"/>
   </g>
   <g transform="translate(104.93 81.963)">
    <path d="m6.1719-3.3438c0.17188-0.5 0.48438-0.64062 0.84375-0.64062v-0.3125c-0.23438 0.015625-0.51562 0.03125-0.73438 0.03125-0.29688 0-0.73438-0.015625-0.92188-0.03125v0.3125c0.35938 0 0.57812 0.1875 0.57812 0.46875 0 0.0625 0 0.09375-0.0625 0.21875l-0.90625 2.5469-0.98438-2.7812c-0.03125-0.125-0.046875-0.14062-0.046875-0.1875 0-0.26562 0.39062-0.26562 0.59375-0.26562v-0.3125c-0.29688 0.015625-0.79688 0.03125-1.0469 0.03125-0.29688 0-0.57812-0.015625-0.875-0.03125v0.3125c0.35938 0 0.51562 0.015625 0.625 0.14062 0.046875 0.0625 0.15625 0.35938 0.21875 0.54688l-0.84375 2.4219-0.95312-2.6562c-0.046875-0.125-0.046875-0.14062-0.046875-0.1875 0-0.26562 0.39062-0.26562 0.57812-0.26562v-0.3125c-0.29688 0.015625-0.85938 0.03125-1.0781 0.03125-0.046875 0-0.57812-0.015625-0.9375-0.03125v0.3125c0.5 0 0.625 0.03125 0.75 0.34375l1.25 3.5312c0.046875 0.14062 0.078125 0.21875 0.20312 0.21875 0.14062 0 0.15625-0.0625 0.20312-0.20312l1.0156-2.8125 1.0156 2.8281c0.03125 0.10938 0.0625 0.1875 0.20312 0.1875 0.125 0 0.15625-0.09375 0.1875-0.1875z" color="#000000" style="-inkscape-stroke:none"/>
   </g>
   <g transform="translate(111.85 81.963)">
    <path d="m3.3125-0.75c0.046875 0.39062 0.3125 0.8125 0.78125 0.8125 0.21875 0 0.82812-0.14062 0.82812-0.95312v-0.5625h-0.25v0.5625c0 0.57812-0.25 0.64062-0.35938 0.64062-0.32812 0-0.375-0.45312-0.375-0.5v-1.9844c0-0.42188 0-0.8125-0.35938-1.1875-0.39062-0.39062-0.89062-0.54688-1.3594-0.54688-0.82812 0-1.5156 0.46875-1.5156 1.125 0 0.29688 0.20312 0.46875 0.46875 0.46875 0.28125 0 0.45312-0.20312 0.45312-0.45312 0-0.125-0.046875-0.45312-0.51562-0.45312 0.28125-0.35938 0.76562-0.46875 1.0781-0.46875 0.5 0 1.0625 0.39062 1.0625 1.2812v0.35938c-0.51562 0.03125-1.2031 0.0625-1.8281 0.35938-0.75 0.34375-1 0.85938-1 1.2969 0 0.8125 0.96875 1.0625 1.5938 1.0625 0.65625 0 1.1094-0.40625 1.2969-0.85938zm-0.0625-1.6406v1c0 0.9375-0.71875 1.2812-1.1719 1.2812-0.48438 0-0.89062-0.34375-0.89062-0.84375 0-0.54688 0.42188-1.375 2.0625-1.4375z" color="#000000" style="-inkscape-stroke:none"/>
   </g>
   <g transform="translate(116.55 81.963)">
    <path d="m4.1406-3.3125c0.09375-0.23438 0.26562-0.67188 0.92188-0.67188v-0.3125c-0.23438 0.015625-0.51562 0.03125-0.75 0.03125s-0.6875-0.015625-0.85938-0.03125v0.3125c0.35938 0 0.46875 0.23438 0.46875 0.42188 0 0.09375-0.015625 0.14062-0.046875 0.25l-1.0312 2.5312-1.1094-2.7812c-0.0625-0.125-0.0625-0.14062-0.0625-0.17188 0-0.25 0.39062-0.25 0.57812-0.25v-0.3125c-0.3125 0.015625-0.85938 0.03125-1.0938 0.03125-0.26562 0-0.67188-0.015625-0.96875-0.03125v0.3125c0.625 0 0.67188 0.0625 0.79688 0.35938l1.4375 3.5469c0.0625 0.14062 0.078125 0.1875 0.20312 0.1875 0.14062 0 0.17188-0.09375 0.21875-0.1875z" color="#000000" style="-inkscape-stroke:none"/>
   </g>
   <g transform="translate(121.54 81.963)">
    <path d="m1.1094-2.5156c0.0625-1.4844 0.90625-1.7344 1.25-1.7344 1.0156 0 1.125 1.3438 1.125 1.7344zm0 0.21875h2.7812c0.21875 0 0.25 0 0.25-0.21875 0-0.98438-0.54688-1.9531-1.7812-1.9531-1.1562 0-2.0781 1.0312-2.0781 2.2812 0 1.3281 1.0469 2.2969 2.1875 2.2969 1.2188 0 1.6719-1.1094 1.6719-1.2969 0-0.09375-0.078125-0.125-0.14062-0.125-0.078125 0-0.10938 0.0625-0.125 0.14062-0.34375 1.0312-1.25 1.0312-1.3438 1.0312-0.5 0-0.89062-0.29688-1.125-0.67188-0.29688-0.46875-0.29688-1.125-0.29688-1.4844z" color="#000000" style="-inkscape-stroke:none"/>
   </g>
   <g transform="translate(125.97 81.963)">
    <path d="m1.7656-6.9219-1.4375 0.10938v0.3125c0.70312 0 0.78125 0.0625 0.78125 0.5625v5.1875c0 0.4375-0.10938 0.4375-0.78125 0.4375v0.3125c0.32812-0.015625 0.85938-0.03125 1.1094-0.03125s0.73438 0.015625 1.1094 0.03125v-0.3125c-0.67188 0-0.78125 0-0.78125-0.4375z" color="#000000" style="-inkscape-stroke:none"/>
   </g>
   <g transform="translate(128.74 81.963)">
    <path d="m1.1094-2.5156c0.0625-1.4844 0.90625-1.7344 1.25-1.7344 1.0156 0 1.125 1.3438 1.125 1.7344zm0 0.21875h2.7812c0.21875 0 0.25 0 0.25-0.21875 0-0.98438-0.54688-1.9531-1.7812-1.9531-1.1562 0-2.0781 1.0312-2.0781 2.2812 0 1.3281 1.0469 2.2969 2.1875 2.2969 1.2188 0 1.6719-1.1094 1.6719-1.2969 0-0.09375-0.078125-0.125-0.14062-0.125-0.078125 0-0.10938 0.0625-0.125 0.14062-0.34375 1.0312-1.25 1.0312-1.3438 1.0312-0.5 0-0.89062-0.29688-1.125-0.67188-0.29688-0.46875-0.29688-1.125-0.29688-1.4844z" color="#000000" style="-inkscape-stroke:none"/>
   </g>
   <g transform="translate(133.16 81.963)">
    <path d="m1.0938-3.4219v2.6719c0 0.4375-0.10938 0.4375-0.78125 0.4375v0.3125c0.35938-0.015625 0.85938-0.03125 1.1406-0.03125 0.25 0 0.76562 0.015625 1.1094 0.03125v-0.3125c-0.67188 0-0.78125 0-0.78125-0.4375v-1.8438c0-1.0312 0.71875-1.5938 1.3438-1.5938 0.64062 0 0.75 0.53125 0.75 1.1094v2.3281c0 0.4375-0.10938 0.4375-0.78125 0.4375v0.3125c0.34375-0.015625 0.85938-0.03125 1.125-0.03125 0.25 0 0.78125 0.015625 1.1094 0.03125v-0.3125c-0.51562 0-0.76562 0-0.76562-0.29688v-1.9062c0-0.85938 0-1.1562-0.3125-1.5156-0.14062-0.17188-0.46875-0.375-1.0469-0.375-0.73438 0-1.2031 0.42188-1.4844 1.0469v-1.0469l-1.4062 0.10938v0.3125c0.70312 0 0.78125 0.0625 0.78125 0.5625z" color="#000000" style="-inkscape-stroke:none"/>
   </g>
   <g transform="translate(138.7 81.963)">
    <path d="m2.2188-1.7188c-0.875 0-0.875-1-0.875-1.2188 0-0.26562 0.015625-0.59375 0.15625-0.84375 0.078125-0.10938 0.3125-0.39062 0.71875-0.39062 0.85938 0 0.85938 0.98438 0.85938 1.2188 0 0.26562 0 0.59375-0.15625 0.84375-0.078125 0.10938-0.3125 0.39062-0.70312 0.39062zm-1.1562 0.39062c0-0.03125 0-0.26562 0.15625-0.46875 0.39062 0.28125 0.8125 0.3125 1 0.3125 0.92188 0 1.6094-0.6875 1.6094-1.4531 0-0.375-0.15625-0.73438-0.40625-0.96875 0.35938-0.34375 0.71875-0.39062 0.89062-0.39062 0.03125 0 0.078125 0 0.10938 0.015625-0.10938 0.03125-0.17188 0.14062-0.17188 0.26562 0 0.17188 0.14062 0.28125 0.29688 0.28125 0.09375 0 0.28125-0.0625 0.28125-0.29688 0-0.17188-0.10938-0.48438-0.5-0.48438-0.20312 0-0.64062 0.0625-1.0625 0.46875-0.42188-0.32812-0.82812-0.35938-1.0469-0.35938-0.9375 0-1.625 0.6875-1.625 1.4531 0 0.4375 0.21875 0.8125 0.46875 1.0312-0.125 0.14062-0.3125 0.46875-0.3125 0.82812 0 0.3125 0.14062 0.6875 0.45312 0.89062-0.60938 0.15625-0.92188 0.59375-0.92188 0.98438 0 0.71875 0.98438 1.2656 2.2031 1.2656 1.1719 0 2.2031-0.5 2.2031-1.2812 0-0.34375-0.125-0.85938-0.64062-1.1406-0.53125-0.26562-1.1094-0.26562-1.7188-0.26562-0.25 0-0.67188 0-0.75-0.015625-0.3125-0.046875-0.51562-0.34375-0.51562-0.67188zm1.4375 3.1562c-1.0156 0-1.7031-0.51562-1.7031-1.0469 0-0.45312 0.375-0.82812 0.8125-0.84375h0.59375c0.85938 0 1.9688 0 1.9688 0.84375 0 0.54688-0.70312 1.0469-1.6719 1.0469z" color="#000000" style="-inkscape-stroke:none"/>
   </g>
   <g transform="translate(143.68 81.963)">
    <path d="m1.7188-3.9844h1.4375v-0.3125h-1.4375v-1.8281h-0.25c0 0.8125-0.29688 1.875-1.2812 1.9219v0.21875h0.84375v2.75c0 1.2188 0.9375 1.3438 1.2969 1.3438 0.70312 0 0.98438-0.70312 0.98438-1.3438v-0.5625h-0.25v0.54688c0 0.73438-0.29688 1.1094-0.67188 1.1094-0.67188 0-0.67188-0.90625-0.67188-1.0781z" color="#000000" style="-inkscape-stroke:none"/>
   </g>
   <g transform="translate(147.55 81.963)">
    <path d="m1.0938-0.75c0 0.4375-0.10938 0.4375-0.78125 0.4375v0.3125c0.35938-0.015625 0.85938-0.03125 1.1406-0.03125 0.25 0 0.76562 0.015625 1.1094 0.03125v-0.3125c-0.67188 0-0.78125 0-0.78125-0.4375v-1.8438c0-1.0312 0.71875-1.5938 1.3438-1.5938 0.64062 0 0.75 0.53125 0.75 1.1094v2.3281c0 0.4375-0.10938 0.4375-0.78125 0.4375v0.3125c0.34375-0.015625 0.85938-0.03125 1.125-0.03125 0.25 0 0.78125 0.015625 1.1094 0.03125v-0.3125c-0.51562 0-0.76562 0-0.76562-0.29688v-1.9062c0-0.85938 0-1.1562-0.3125-1.5156-0.14062-0.17188-0.46875-0.375-1.0469-0.375-0.84375 0-1.2812 0.59375-1.4531 0.98438v-3.5l-1.4375 0.10938v0.3125c0.70312 0 0.78125 0.0625 0.78125 0.5625z" color="#000000" style="-inkscape-stroke:none"/>
   </g>
   <g transform="translate(153.09 81.963)">
    <path d="m2.875-2.5c0-0.76562-0.10938-1.9688-0.65625-3.1094-0.59375-1.2188-1.4531-1.875-1.5469-1.875-0.0625 0-0.10938 0.046875-0.10938 0.10938 0 0.03125 0 0.046875 0.1875 0.23438 0.98438 0.98438 1.5469 2.5625 1.5469 4.6406 0 1.7188-0.35938 3.4688-1.5938 4.7188-0.14062 0.125-0.14062 0.14062-0.14062 0.17188 0 0.0625 0.046875 0.10938 0.10938 0.10938 0.09375 0 1-0.6875 1.5781-1.9531 0.51562-1.0938 0.625-2.2031 0.625-3.0469z" color="#000000" style="-inkscape-stroke:none"/>
   </g>
  </g>
 </g>
 <g>
  <path d="m55.543 57.129v34.193h0.85352v-34.193z" color="#000000" style="-inkscape-stroke:none"/>
  <g fill-rule="evenodd">
   <path d="m55.97 55.157 1.7096 2.9576h-3.4192z" color="#000000" stroke-width=".34192pt" style="-inkscape-stroke:none"/>
   <path d="m55.969 54.701-0.19727 0.3418-1.9062 3.2988h4.209zm0 0.91211 1.3164 2.2734h-2.6309z" color="#000000" style="-inkscape-stroke:none"/>
   <path d="m55.97 93.295-1.7096-2.9576h3.4192z" color="#000000" stroke-width=".34192pt" style="-inkscape-stroke:none"/>
   <path d="m53.865 90.109 2.1035 3.6406 0.19727-0.3418 1.9082-3.2988zm0.78906 0.45508h2.6309l-1.3164 2.2754z" color="#000000" style="-inkscape-stroke:none"/>
  </g>
 </g>
 <g transform="matrix(.9615 0 0 .9615 -42.091 -.11536)">
  <g>
   <g transform="translate(91.925 81.963)">
    <path d="m1.7812-1.1406c-0.39062 0.65625-0.78125 0.79688-1.2188 0.82812-0.125 0.015625-0.21875 0.015625-0.21875 0.20312 0 0.0625 0.0625 0.10938 0.14062 0.10938 0.26562 0 0.57812-0.03125 0.84375-0.03125 0.34375 0 0.6875 0.03125 1 0.03125 0.0625 0 0.1875 0 0.1875-0.1875 0-0.10938-0.078125-0.125-0.15625-0.125-0.21875-0.015625-0.46875-0.09375-0.46875-0.34375 0-0.125 0.0625-0.23438 0.14062-0.375l0.76562-1.2656h2.5c0.015625 0.20312 0.15625 1.5625 0.15625 1.6562 0 0.29688-0.51562 0.32812-0.71875 0.32812-0.14062 0-0.23438 0-0.23438 0.20312 0 0.10938 0.10938 0.10938 0.14062 0.10938 0.40625 0 0.82812-0.03125 1.2344-0.03125 0.25 0 0.89062 0.03125 1.1406 0.03125 0.046875 0 0.17188 0 0.17188-0.20312 0-0.10938-0.09375-0.10938-0.23438-0.10938-0.60938 0-0.60938-0.0625-0.64062-0.35938l-0.60938-6.2188c-0.015625-0.20312-0.015625-0.25-0.1875-0.25-0.15625 0-0.20312 0.078125-0.26562 0.17188zm1.2031-1.4688 1.9531-3.2969 0.32812 3.2969z" color="#000000" style="-inkscape-stroke:none"/>
   </g>
  </g>
 </g>
 <g>
  <path d="m226.5 57.129v34.193h0.85546v-34.193z" color="#000000" style="-inkscape-stroke:none"/>
  <g fill-rule="evenodd">
   <path d="m226.93 55.157 1.7096 2.9576h-3.4192z" color="#000000" stroke-width=".34192pt" style="-inkscape-stroke:none"/>
   <path d="m226.93 54.701-0.19727 0.3418-1.9082 3.2988h4.209zm0 0.91211 1.3144 2.2734h-2.6309z" color="#000000" style="-inkscape-stroke:none"/>
   <path d="m226.93 93.295-1.7096-2.9576h3.4192z" color="#000000" stroke-width=".34192pt" style="-inkscape-stroke:none"/>
   <path d="m224.83 90.109 2.1055 3.6406 0.19727-0.3418 1.9062-3.2988zm0.78906 0.45508h2.6309l-1.3144 2.2754z" color="#000000" style="-inkscape-stroke:none"/>
  </g>
 </g>
 <g transform="matrix(.9615 0 0 .9615 128.87 -.11536)">
  <g>
   <g transform="translate(91.925 81.963)">
    <path d="m1.7812-1.1406c-0.39062 0.65625-0.78125 0.79688-1.2188 0.82812-0.125 0.015625-0.21875 0.015625-0.21875 0.20312 0 0.0625 0.0625 0.10938 0.14062 0.10938 0.26562 0 0.57812-0.03125 0.84375-0.03125 0.34375 0 0.6875 0.03125 1 0.03125 0.0625 0 0.1875 0 0.1875-0.1875 0-0.10938-0.078125-0.125-0.15625-0.125-0.21875-0.015625-0.46875-0.09375-0.46875-0.34375 0-0.125 0.0625-0.23438 0.14062-0.375l0.76562-1.2656h2.5c0.015625 0.20312 0.15625 1.5625 0.15625 1.6562 0 0.29688-0.51562 0.32812-0.71875 0.32812-0.14062 0-0.23438 0-0.23438 0.20312 0 0.10938 0.10938 0.10938 0.14062 0.10938 0.40625 0 0.82812-0.03125 1.2344-0.03125 0.25 0 0.89062 0.03125 1.1406 0.03125 0.046875 0 0.17188 0 0.17188-0.20312 0-0.10938-0.09375-0.10938-0.23438-0.10938-0.60938 0-0.60938-0.0625-0.64062-0.35938l-0.60938-6.2188c-0.015625-0.20312-0.015625-0.25-0.1875-0.25-0.15625 0-0.20312 0.078125-0.26562 0.17188zm1.2031-1.4688 1.9531-3.2969 0.32812 3.2969z" color="#000000" style="-inkscape-stroke:none"/>
   </g>
  </g>
 </g>
 <g>
  <path d="m141.02 99.869v34.193h0.85351v-34.193z" color="#000000" style="-inkscape-stroke:none"/>
  <g fill-rule="evenodd">
   <path d="m141.45 97.897 1.7096 2.9576h-3.4192z" color="#000000" stroke-width=".34192pt" style="-inkscape-stroke:none"/>
   <path d="m141.45 97.441-0.19922 0.3418-1.9062 3.2988h4.209zm-2e-3 0.91211 1.3164 2.2734h-2.6308z" color="#000000" style="-inkscape-stroke:none"/>
   <path d="m141.45 136.04-1.7096-2.9576h3.4192z" color="#000000" stroke-width=".34192pt" style="-inkscape-stroke:none"/>
   <path d="m139.35 132.85 2.1055 3.6406 0.19727-0.33984 1.9062-3.3008zm0.79102 0.45703h2.627l-1.3144 2.2715z" color="#000000" style="-inkscape-stroke:none"/>
  </g>
 </g>
 <g transform="matrix(.9615 0 0 .9615 43.39 42.625)">
  <g>
   <g transform="translate(91.925 81.963)">
    <path d="m1.7812-1.1406c-0.39062 0.65625-0.78125 0.79688-1.2188 0.82812-0.125 0.015625-0.21875 0.015625-0.21875 0.20312 0 0.0625 0.0625 0.10938 0.14062 0.10938 0.26562 0 0.57812-0.03125 0.84375-0.03125 0.34375 0 0.6875 0.03125 1 0.03125 0.0625 0 0.1875 0 0.1875-0.1875 0-0.10938-0.078125-0.125-0.15625-0.125-0.21875-0.015625-0.46875-0.09375-0.46875-0.34375 0-0.125 0.0625-0.23438 0.14062-0.375l0.76562-1.2656h2.5c0.015625 0.20312 0.15625 1.5625 0.15625 1.6562 0 0.29688-0.51562 0.32812-0.71875 0.32812-0.14062 0-0.23438 0-0.23438 0.20312 0 0.10938 0.10938 0.10938 0.14062 0.10938 0.40625 0 0.82812-0.03125 1.2344-0.03125 0.25 0 0.89062 0.03125 1.1406 0.03125 0.046875 0 0.17188 0 0.17188-0.20312 0-0.10938-0.09375-0.10938-0.23438-0.10938-0.60938 0-0.60938-0.0625-0.64062-0.35938l-0.60938-6.2188c-0.015625-0.20312-0.015625-0.25-0.1875-0.25-0.15625 0-0.20312 0.078125-0.26562 0.17188zm1.2031-1.4688 1.9531-3.2969 0.32812 3.2969z" color="#000000" style="-inkscape-stroke:none"/>
   </g>
  </g>
 </g>
 <g transform="matrix(1.0714 0 0 1.0714 144.73 17.656)">
  <g>
   <g transform="translate(91.925 81.963)">
    <path d="m3.7812-0.54688v0.65625l1.4688-0.10938v-0.3125c-0.6875 0-0.78125-0.0625-0.78125-0.5625v-6.0469l-1.4219 0.10938v0.3125c0.6875 0 0.76562 0.0625 0.76562 0.5625v2.1562c-0.28125-0.35938-0.71875-0.625-1.25-0.625-1.1719 0-2.2188 0.98438-2.2188 2.2656 0 1.2656 0.96875 2.25 2.1094 2.25 0.64062 0 1.0781-0.34375 1.3281-0.65625zm0-2.6719v2.0469c0 0.17188 0 0.1875-0.10938 0.35938-0.29688 0.48438-0.73438 0.70312-1.1719 0.70312-0.45312 0-0.8125-0.26562-1.0469-0.64062-0.25-0.40625-0.28125-0.96875-0.28125-1.3906 0-0.35938 0.015625-0.95312 0.29688-1.4062 0.21875-0.3125 0.59375-0.64062 1.1406-0.64062 0.34375 0 0.76562 0.15625 1.0625 0.59375 0.10938 0.17188 0.10938 0.1875 0.10938 0.375z" color="#000000" style="-inkscape-stroke:none"/>
   </g>
   <g transform="translate(97.46 81.963)">
    <path d="m1.7656-4.4062-1.3906 0.10938v0.3125c0.64062 0 0.73438 0.0625 0.73438 0.54688v2.6875c0 0.4375-0.10938 0.4375-0.78125 0.4375v0.3125c0.3125-0.015625 0.85938-0.03125 1.0938-0.03125 0.35938 0 0.70312 0.015625 1.0469 0.03125v-0.3125c-0.67188 0-0.70312-0.046875-0.70312-0.4375zm0.03125-1.7344c0-0.3125-0.23438-0.53125-0.51562-0.53125-0.3125 0-0.53125 0.26562-0.53125 0.53125s0.21875 0.53125 0.53125 0.53125c0.28125 0 0.51562-0.21875 0.51562-0.53125z" color="#000000" style="-inkscape-stroke:none"/>
   </g>
   <g transform="translate(100.23 81.963)">
    <path d="m2.0781-1.9375c0.21875 0.046875 1.0312 0.20312 1.0312 0.92188 0 0.5-0.34375 0.90625-1.125 0.90625-0.84375 0-1.2031-0.5625-1.3906-1.4219-0.03125-0.125-0.03125-0.15625-0.14062-0.15625-0.125 0-0.125 0.0625-0.125 0.23438v1.3281c0 0.17188 0 0.23438 0.10938 0.23438 0.046875 0 0.0625-0.015625 0.25-0.20312 0.015625-0.015625 0.015625-0.03125 0.20312-0.21875 0.4375 0.40625 0.89062 0.42188 1.0938 0.42188 1.1406 0 1.6094-0.67188 1.6094-1.3906 0-0.51562-0.29688-0.82812-0.42188-0.9375-0.32812-0.32812-0.71875-0.40625-1.1406-0.48438-0.5625-0.10938-1.2188-0.23438-1.2188-0.8125 0-0.35938 0.25-0.76562 1.1094-0.76562 1.0938 0 1.1562 0.90625 1.1719 1.2031 0 0.09375 0.09375 0.09375 0.10938 0.09375 0.14062 0 0.14062-0.046875 0.14062-0.23438v-1.0156c0-0.15625 0-0.23438-0.10938-0.23438-0.046875 0-0.078125 0-0.20312 0.125-0.03125 0.03125-0.125 0.125-0.17188 0.15625-0.375-0.28125-0.78125-0.28125-0.9375-0.28125-1.2188 0-1.5938 0.67188-1.5938 1.2344 0 0.34375 0.15625 0.625 0.42188 0.84375 0.32812 0.25 0.60938 0.3125 1.3281 0.45312z" color="#000000" style="-inkscape-stroke:none"/>
   </g>
   <g transform="translate(104.16 81.963)">
    <path d="m1.7188-3.9844h1.4375v-0.3125h-1.4375v-1.8281h-0.25c0 0.8125-0.29688 1.875-1.2812 1.9219v0.21875h0.84375v2.75c0 1.2188 0.9375 1.3438 1.2969 1.3438 0.70312 0 0.98438-0.70312 0.98438-1.3438v-0.5625h-0.25v0.54688c0 0.73438-0.29688 1.1094-0.67188 1.1094-0.67188 0-0.67188-0.90625-0.67188-1.0781z" color="#000000" style="-inkscape-stroke:none"/>
   </g>
   <g transform="translate(108.03 81.963)">
    <path d="m3.3125-0.75c0.046875 0.39062 0.3125 0.8125 0.78125 0.8125 0.21875 0 0.82812-0.14062 0.82812-0.95312v-0.5625h-0.25v0.5625c0 0.57812-0.25 0.64062-0.35938 0.64062-0.32812 0-0.375-0.45312-0.375-0.5v-1.9844c0-0.42188 0-0.8125-0.35938-1.1875-0.39062-0.39062-0.89062-0.54688-1.3594-0.54688-0.82812 0-1.5156 0.46875-1.5156 1.125 0 0.29688 0.20312 0.46875 0.46875 0.46875 0.28125 0 0.45312-0.20312 0.45312-0.45312 0-0.125-0.046875-0.45312-0.51562-0.45312 0.28125-0.35938 0.76562-0.46875 1.0781-0.46875 0.5 0 1.0625 0.39062 1.0625 1.2812v0.35938c-0.51562 0.03125-1.2031 0.0625-1.8281 0.35938-0.75 0.34375-1 0.85938-1 1.2969 0 0.8125 0.96875 1.0625 1.5938 1.0625 0.65625 0 1.1094-0.40625 1.2969-0.85938zm-0.0625-1.6406v1c0 0.9375-0.71875 1.2812-1.1719 1.2812-0.48438 0-0.89062-0.34375-0.89062-0.84375 0-0.54688 0.42188-1.375 2.0625-1.4375z" color="#000000" style="-inkscape-stroke:none"/>
   </g>
   <g transform="translate(113.01 81.963)">
    <path d="m1.0938-3.4219v2.6719c0 0.4375-0.10938 0.4375-0.78125 0.4375v0.3125c0.35938-0.015625 0.85938-0.03125 1.1406-0.03125 0.25 0 0.76562 0.015625 1.1094 0.03125v-0.3125c-0.67188 0-0.78125 0-0.78125-0.4375v-1.8438c0-1.0312 0.71875-1.5938 1.3438-1.5938 0.64062 0 0.75 0.53125 0.75 1.1094v2.3281c0 0.4375-0.10938 0.4375-0.78125 0.4375v0.3125c0.34375-0.015625 0.85938-0.03125 1.125-0.03125 0.25 0 0.78125 0.015625 1.1094 0.03125v-0.3125c-0.51562 0-0.76562 0-0.76562-0.29688v-1.9062c0-0.85938 0-1.1562-0.3125-1.5156-0.14062-0.17188-0.46875-0.375-1.0469-0.375-0.73438 0-1.2031 0.42188-1.4844 1.0469v-1.0469l-1.4062 0.10938v0.3125c0.70312 0 0.78125 0.0625 0.78125 0.5625z" color="#000000" style="-inkscape-stroke:none"/>
   </g>
   <g transform="translate(118.55 81.963)">
    <path d="m1.1719-2.1719c0-1.625 0.8125-2.0469 1.3438-2.0469 0.09375 0 0.71875 0.015625 1.0625 0.375-0.40625 0.03125-0.46875 0.32812-0.46875 0.45312 0 0.26562 0.1875 0.45312 0.45312 0.45312s0.46875-0.15625 0.46875-0.46875c0-0.67188-0.76562-1.0625-1.5312-1.0625-1.25 0-2.1562 1.0781-2.1562 2.3125 0 1.2812 0.98438 2.2656 2.1406 2.2656 1.3281 0 1.6562-1.2031 1.6562-1.2969s-0.10938-0.09375-0.14062-0.09375c-0.078125 0-0.10938 0.03125-0.125 0.09375-0.28125 0.92188-0.9375 1.0469-1.2969 1.0469-0.53125 0-1.4062-0.42188-1.4062-2.0312z" color="#000000" style="-inkscape-stroke:none"/>
   </g>
   <g transform="translate(122.98 81.963)">
    <path d="m1.1094-2.5156c0.0625-1.4844 0.90625-1.7344 1.25-1.7344 1.0156 0 1.125 1.3438 1.125 1.7344zm0 0.21875h2.7812c0.21875 0 0.25 0 0.25-0.21875 0-0.98438-0.54688-1.9531-1.7812-1.9531-1.1562 0-2.0781 1.0312-2.0781 2.2812 0 1.3281 1.0469 2.2969 2.1875 2.2969 1.2188 0 1.6719-1.1094 1.6719-1.2969 0-0.09375-0.078125-0.125-0.14062-0.125-0.078125 0-0.10938 0.0625-0.125 0.14062-0.34375 1.0312-1.25 1.0312-1.3438 1.0312-0.5 0-0.89062-0.29688-1.125-0.67188-0.29688-0.46875-0.29688-1.125-0.29688-1.4844z" color="#000000" style="-inkscape-stroke:none"/>
   </g>
  </g>
 </g>
</svg>
